<svg xmlns="http://www.w3.org/2000/svg" width="22" height="28.351" viewBox="0 0 22 28.351">
  <g id="_" data-name="î¡" fill="#fff" stroke-miterlimit="10">
    <path d="M 21.5 27.59156227111816 L 11.19734001159668 23.16601753234863 L 11 23.08124732971191 L 10.80265998840332 23.16601753234863 L 0.5 27.59156227111816 L 0.5 3.175257682800293 C 0.5 2.445797681808472 0.7511900067329407 1.829537630081177 1.267910003662109 1.291287660598755 C 1.779070019721985 0.7588276863098145 2.37824010848999 0.4999976754188538 3.09965991973877 0.4999976754188538 L 18.90035057067871 0.4999976754188538 C 19.62175941467285 0.4999976754188538 20.2209300994873 0.7588276863098145 20.73208999633789 1.291287660598755 C 21.24880981445313 1.829527735710144 21.5 2.445787668228149 21.5 3.175257682800293 L 21.5 27.59156227111816 Z" stroke="none"/>
    <path d="M 21 26.83260726928711 L 21 3.175257682800293 C 21 2.572887659072876 20.80026054382324 2.084277629852295 20.37138938903809 1.637547731399536 C 19.95383071899414 1.202587723731995 19.48638916015625 0.9999976754188538 18.90035057067871 0.9999976754188538 L 3.09965991973877 0.9999976754188538 C 2.513609886169434 0.9999976754188538 2.046169996261597 1.202587723731995 1.628610014915466 1.637547731399536 C 1.199740052223206 2.084277629852295 1 2.572897672653198 1 3.175257682800293 L 1 26.83260726928711 L 10.60531997680664 22.70660781860352 L 11 22.53707695007324 L 11.39468002319336 22.70660781860352 L 21 26.83260726928711 M 22 28.35051727294922 L 11 23.62542724609375 L -1.77635683940025e-15 28.35051727294922 L -1.77635683940025e-15 3.175257682800293 C -1.77635683940025e-15 2.318447589874268 0.3024100065231323 1.575027704238892 0.9072200059890747 0.9450176954269409 C 1.512030005455017 0.3150076866149902 2.242840051651001 -2.317199687240645e-06 3.09965991973877 -2.317199687240645e-06 L 18.90035057067871 -2.317199687240645e-06 C 19.75716018676758 -2.317199687240645e-06 20.48797035217285 0.3150076866149902 21.0927791595459 0.9450176954269409 C 21.69759941101074 1.575027704238892 22 2.318447589874268 22 3.175257682800293 L 22 28.35051727294922 Z" stroke="none" fill="#5d5d5d"/>
  </g>
</svg>
