<svg xmlns="http://www.w3.org/2000/svg" width="24" height="17.561" viewBox="0 0 24 17.561">
  <path id="_copy" data-name="î½ copy" d="M4.43,17.561a.722.722,0,0,1-.481-.167.507.507,0,0,1-.2-.4.614.614,0,0,1,.012-.118.29.29,0,0,1,.036-.1,14.607,14.607,0,0,0,.761-1.323,3.59,3.59,0,0,0,.433-1.675A.039.039,0,0,1,5,13.748a.035.035,0,0,0,.012-.029,11.36,11.36,0,0,1-2.133-1.176,7.722,7.722,0,0,1-1.57-1.46A6.291,6.291,0,0,1,.34,9.4,5.208,5.208,0,0,1,0,7.526,5.07,5.07,0,0,1,.937,4.6,8.687,8.687,0,0,1,3.5,2.2,13.817,13.817,0,0,1,7.325.588,17.954,17.954,0,0,1,12,0a17.963,17.963,0,0,1,4.676.588A13.824,13.824,0,0,1,20.5,2.2,8.687,8.687,0,0,1,23.063,4.6a5.048,5.048,0,0,1,0,5.86A8.69,8.69,0,0,1,20.5,12.848a13.824,13.824,0,0,1-3.82,1.616A17.963,17.963,0,0,1,12,15.052h-.633c-.218,0-.426,0-.621-.01a6.519,6.519,0,0,1-.691-.068,5.515,5.515,0,0,1-.739.578,13.371,13.371,0,0,1-1.3.784,14.973,14.973,0,0,1-1.629.745,8.329,8.329,0,0,1-1.77.48Z" fill="#5d5d5d"/>
</svg>
