<svg xmlns="http://www.w3.org/2000/svg" width="24" height="19.421" viewBox="0 0 24 19.421">
  <path id="_copy" data-name="îš copy" d="M1.928,19.421a2.1,2.1,0,0,1-1.365-.454A1.377,1.377,0,0,1,0,17.861V9.884A1.377,1.377,0,0,1,.563,8.779a2.1,2.1,0,0,1,1.365-.455H4.956l.4-.065a3.682,3.682,0,0,0,.952-.325,2.5,2.5,0,0,0,.87-.65Q7.66,6.654,8.6,5.333c.072-.1.174-.246.309-.433s.227-.326.281-.413a.363.363,0,0,0,.053-.195c-.017-.3-.036-.751-.053-1.344,0-.188-.01-.447-.027-.78A1.839,1.839,0,0,1,10.5.369,4.431,4.431,0,0,1,12.268,0a4.611,4.611,0,0,1,1.581.282A2.391,2.391,0,0,1,15.294,1.5l.242.52q.455,1,.643,1.431a4.04,4.04,0,0,1,.133,2.579c-.053.2-.116.5-.188.889h4.661a5.151,5.151,0,0,1,1.339.173,2.475,2.475,0,0,1,1.769,1.669.2.2,0,0,0,.053.087v.065L24,9.017v.954l-.106.108a2.873,2.873,0,0,1-.536.976,1.7,1.7,0,0,1,.133.65,2.429,2.429,0,0,1-.616,1.647,1.838,1.838,0,0,1,.133.52,2.676,2.676,0,0,1-.616,1.821,2.542,2.542,0,0,1,.08.975,2.653,2.653,0,0,1-.763,1.583,3.651,3.651,0,0,1-1.728.953,7.467,7.467,0,0,1-1.928.217Z" fill="#5d5d5d"/>
</svg>
